# xmcd CD database file
#
# Track frame offsets:
#	150
#	20542
#	41220
#	60111
#	80221
#	102017
#	111406
#	128970
#	143250
#
# Disc length: 2133 seconds
#
# Revision: 0
# Processed by: cddbd v1.5.2PL0 Copyright (c) Steve Scherf et al.
# Submitted via: CDex 1.51
#
DISCID=72085309
DTITLE=BandM - BANDM Plays The Blues
DYEAR=2006
DGENRE=Blues
TTITLE0=Mustang Sally
TTITLE1=Boogie All Night
TTITLE2=Riding With the King
TTITLE3=Closer To You
TTITLE4=Caledonia
TTITLE5=Short Trip To Heaven
TTITLE6=Pride and Joy
TTITLE7=Drown In My Own Tears
TTITLE8=Route 66
EXTD=YEAR: 2006
EXTT0=
EXTT1=
EXTT2=
EXTT3=
EXTT4=
EXTT5=
EXTT6=
EXTT7=
EXTT8=
PLAYORDER=
